{"title":"Total Recall 2012 EXTENDED DC 1080p BluRay x264 DTS","uid":12688555,"size":8544112985,"categoryP":"video","categoryS":"hd___movies","magnet":"?xt=urn:btih:75b9a712ad2fdc3e3c05d4355ea4e4b8c08906a0&amp;dn=Total+Recall+2012+EXTENDED+DC+1080p+BluRay+x264+DTS&amp;tr=udp%3A%2F%2Ftracker.leechers-paradise.org%3A6969&amp;tr=udp%3A%2F%2Fzer0day.ch%3A1337&amp;tr=udp%3A%2F%2Fopen.demonii.com%3A1337&amp;tr=udp%3A%2F%2Ftracker.coppersurfer.tk%3A6969&amp;tr=udp%3A%2F%2Fexodus.desync.com%3A6969","seeders":0,"leechers":1,"uploader":"TheRival","files":3,"time":1446639893,"description":"Screens: \nhttp://extraimago.com/image/KEi \nhttp://extraimago.com/image/KEl \nhttp://extraimago.com/image/KEI \nhttp://extraimago.com/image/KEd \nhttp://extraimago.com/image/KEh\r\n\r\nVideo\r\nID                                       : 1\r\nFormat                                   : AVC\r\nFormat/Info                              : Advanced Video Codec\r\nFormat profile                           :   \r\nFormat settings, CABAC                   : Yes\r\nFormat settings, ReFrames                : 4 frames\r\nCodec ID                                 : V_MPEG4/ISO/AVC\r\nDuration                                 : 2h 10mn\r\nBit rate                                 : 7 061 Kbps\r\nWidth                                    : 1 920 pixels\r\nHeight                                   : 800 pixels\r\nDisplay aspect ratio                     : 2.40:1\r\nFrame rate mode                          : Constant\r\nFrame rate                               : 23.976 fps\r\nColor space                              : YUV\r\nChroma subsampling                       : 4:2:0\r\nBit depth                                : 8 bits\r\nScan type                                : Progressive\r\nBits/(Pixel*Frame)                       : 0.192\r\nStream size                              : 6.43 GiB (81%)\r\nWriting library                          : x264 core 129 r2230 1cffe9f\r\nEncoding settings                        : cabac=1 / ref=5 / deblock=1:-1:-2 / analyse=0x3:0x113 / me=umh / subme=10 / psy=1 / psy_rd=1.10:0.19 / mixed_ref=0 / me_range=32 / chroma_me=1 / trellis=2 / 8x8dct=1 / cqm=0 / deadzone=21,11 / fast_pskip=0 / chroma_qp_offset=-2 / threads=12 / lookahead_threads=2 / sliced_threads=0 / nr=0 / decimate=1 / interlaced=0 / bluray_compat=0 / constrained_intra=0 / bframes=10 / b_pyramid=1 / b_adapt=2 / b_bias=0 / direct=2 / weightb=1 / open_gop=0 / weightp=2 / keyint=240 / keyint_min=23 / scenecut=40 / intra_refresh=0 / rc_lookahead=90 / rc=crf / mbtree=1 / crf=18.0 / qcomp=0.70 / qpmin=10 / qpmax=54 / qpstep=4 / vbv_maxrate=48000 / vbv_bufsize=40000 / crf_max=0.0 / nal_hrd=none / ip_ratio=1.40 / aq=1:1.00\r\nLanguage                                 : English\r\nDefault                                  : Yes\r\nForced                                   : No\r\nColor range                              : Limited\r\nMatrix coefficients                      : BT.709\r\n\r\nAudio\r\nID                                       : 2\r\nFormat                                   : DTS\r\nFormat/Info                              : Digital Theater Systems\r\nMode                                     : 16\r\nFormat settings, Endianness              : Big\r\nCodec ID                                 : A_DTS\r\nDuration                                 : 2h 10mn\r\nBit rate mode                            : Constant\r\nBit rate                                 : 1 510 Kbps\r\nChannel(s)                               : 6 channels\r\nChannel positions                        : Front: L C R, Side: L R, LFE\r\nSampling rate                            : 48.0 KHz\r\nBit depth                                : 24 bits\r\nCompression mode                         : Lossy\r\nStream size                              : 1.37 GiB (17%)\r\nLanguage                                 : English\r\nDefault                                  : Yes\r\nForced                                   : No\r\n\r\nText\r\nID                                       : 3\r\nFormat                                   : UTF-8\r\nCodec ID                                 : S_TEXT/UTF8\r\nCodec ID/Info                            : UTF-8 Plain Text\r\nLanguage                                 : English\r\nDefault                                  : Yes\r\nForced                                   : No","torrent":{"xt":"urn:btih:75b9a712ad2fdc3e3c05d4355ea4e4b8c08906a0","amp;dn":"Total+Recall+2012+EXTENDED+DC+1080p+BluRay+x264+DTS","amp;tr":["udp%3A%2F%2Ftracker.leechers-paradise.org%3A6969","udp%3A%2F%2Fzer0day.ch%3A1337","udp%3A%2F%2Fopen.demonii.com%3A1337","udp%3A%2F%2Ftracker.coppersurfer.tk%3A6969","udp%3A%2F%2Fexodus.desync.com%3A6969"],"infoHash":"75b9a712ad2fdc3e3c05d4355ea4e4b8c08906a0","infoHashBuffer":{"type":"Buffer","data":[117,185,167,18,173,47,220,62,60,5,212,53,94,164,228,184,192,137,6,160]},"announce":[],"urlList":[]}}